<?xml version="1.0" encoding="utf-8"?>
<!-- Generator: Adobe Illustrator 22.0.1, SVG Export Plug-In . SVG Version: 6.00 Build 0)  -->
<svg version="1.1" id="Capa_1" xmlns="http://www.w3.org/2000/svg" xmlns:xlink="http://www.w3.org/1999/xlink" x="0px" y="0px"
	 viewBox="0 0 76 76" style="enable-background:new 0 0 76 76;" xml:space="preserve">
<style type="text/css">
	.st0{clip-path:url(#SVGID_2_);fill:#FF0066;}
	.st1{clip-path:url(#SVGID_4_);fill:#FF0066;}
	.st2{clip-path:url(#SVGID_6_);fill:#FF0066;}
	.st3{clip-path:url(#SVGID_8_);fill:#FF0066;}
	.st4{clip-path:url(#SVGID_10_);fill:#FF0066;}
	.st5{clip-path:url(#SVGID_12_);fill:#FF0066;}
	.st6{clip-path:url(#SVGID_14_);fill:#FF0066;}
	.st7{clip-path:url(#SVGID_16_);fill:#FF0066;}
	.st8{clip-path:url(#SVGID_18_);fill:#FF0066;}
	.st9{fill:#FFFFFF;}
	.st10{clip-path:url(#SVGID_20_);fill:#FF0066;}
	.st11{fill:none;stroke:#FF0066;stroke-width:0.3;stroke-miterlimit:10;}
	.st12{clip-path:url(#SVGID_22_);fill:#FF0066;}
	.st13{clip-path:url(#SVGID_24_);fill:#FF0066;}
	.st14{clip-path:url(#SVGID_26_);fill:#FF0066;}
	.st15{clip-path:url(#SVGID_28_);fill:#FF0066;}
	.st16{clip-path:url(#SVGID_30_);fill:#FF0066;}
	.st17{clip-path:url(#SVGID_32_);fill:#FF0066;}
	.st18{clip-path:url(#SVGID_34_);fill:#FF0066;}
	.st19{clip-path:url(#SVGID_36_);fill:#FF0066;}
	.st20{clip-path:url(#SVGID_38_);fill:#FF0066;}
	.st21{clip-path:url(#SVGID_40_);}
	.st22{clip-path:url(#SVGID_42_);fill:#FFFFFF;}
	.st23{clip-path:url(#SVGID_44_);}
	.st24{clip-path:url(#SVGID_46_);fill:#FFFFFF;}
	.st25{clip-path:url(#SVGID_48_);}
	.st26{clip-path:url(#SVGID_50_);fill:#FFFFFF;}
</style>
<title>food-serve-service-restaurant</title>
<g>
	<g>
		<defs>
			<path id="SVGID_1_" d="M243.8-20.2H226v-2.5h5.1c0.7,0,1.3-0.6,1.3-1.3c0-4.2,3.4-7.6,7.6-7.6c0.7,0,1.3-0.6,1.3-1.3v-7.6
				c0-0.7-0.6-1.3-1.3-1.3c-4.2,0-7.6-3.4-7.6-7.6c0-0.7-0.6-1.3-1.3-1.3h-34.4c-0.7,0-1.3,0.6-1.3,1.3c0,4.2-3.4,7.6-7.6,7.6
				c-0.7,0-1.3,0.6-1.3,1.3v7.6c0,0.7,0.6,1.3,1.3,1.3c4.2,0,7.6,3.4,7.6,7.6c0,0.7,0.6,1.3,1.3,1.3h6.4v2.5h-19.1v-32.9h59.9V-20.2
				z M222.1-30.3c-0.9,0-1.8,0.3-2.5,1l0,0c3.2-2.2,4.6-6.2,3.4-9.9c-1.2-3.7-4.6-6.2-8.5-6.2c-3.9,0-7.4,2.5-8.5,6.2
				c-1.2,3.7,0.2,7.7,3.4,9.9l0,0c-1.1-1-2.7-1.2-4.1-0.6c-1.4,0.6-2.3,2-2.3,3.5v1.3h-5.2c-0.6-4.6-4.2-8.2-8.8-8.8v-5.2
				c4.6-0.6,8.3-4.2,8.8-8.8h32c0.6,4.6,4.2,8.2,8.8,8.8v5.2c-4.6,0.6-8.3,4.2-8.8,8.8H226v-1.3C226-28.6,224.2-30.3,222.1-30.3z
				 M214.5-30.3c-3.5,0-6.4-2.8-6.4-6.3c0-3.5,2.9-6.3,6.4-6.3c3.5,0,6.4,2.8,6.4,6.3C220.9-33.2,218-30.3,214.5-30.3z M246.4-18.9
				v-35.5c0-0.7-0.6-1.3-1.3-1.3h-62.5c-0.7,0-1.3,0.6-1.3,1.3v35.5c0,0.7,0.6,1.3,1.3,1.3H203v3.8c-1.7-0.5-3.6,0.2-4.5,1.8
				c-0.9,1.5-0.7,3.5,0.6,4.8l4,4.1v23.6h2.5V-3.7c0-0.3-0.1-0.6-0.4-0.9L200.9-9c-0.5-0.5-0.5-1.4,0-2c0.5-0.6,1.4-0.6,2-0.1
				l0.4,0.6c0.3,0.4,0.9,0.6,1.4,0.4s0.9-0.7,0.9-1.2v-15.2c0-0.7,0.6-1.3,1.3-1.3c0.7,0,1.3,0.6,1.3,1.3v6.3c0,0.7,0.6,1.3,1.3,1.3
				c0.7,0,1.3-0.6,1.3-1.3v-6.3c0-0.7,0.6-1.3,1.3-1.3c0.7,0,1.3,0.6,1.3,1.3v6.3c0,0.7,0.6,1.3,1.3,1.3c0.7,0,1.3-0.6,1.3-1.3v-6.3
				c0-0.7,0.6-1.3,1.3-1.3c0.7,0,1.3,0.6,1.3,1.3v6.3c0,0.7,0.6,1.3,1.3,1.3c0.7,0,1.3-0.6,1.3-1.3v-6.3c0-0.7,0.6-1.3,1.3-1.3
				s1.3,0.6,1.3,1.3v46.9h2.5v-38h19.1C245.8-17.6,246.4-18.2,246.4-18.9z"/>
		</defs>
		<clipPath id="SVGID_2_">
			<use xlink:href="#SVGID_1_"  style="overflow:visible;"/>
		</clipPath>
		<rect x="176.4" y="-60.6" class="st0" width="75" height="86"/>
	</g>
	<g>
		<defs>
			<path id="SVGID_3_" d="M238.9-25.1h-2.5v2.5h3.8c0.7,0,1.2-0.6,1.2-1.2v-3.8h-2.5V-25.1z"/>
		</defs>
		<clipPath id="SVGID_4_">
			<use xlink:href="#SVGID_3_"  style="overflow:visible;"/>
		</clipPath>
		<rect x="231.4" y="-32.6" class="st1" width="15" height="15"/>
	</g>
	<g>
		<defs>
			<path id="SVGID_5_" d="M238.9-45.6h2.5v-3.8c0-0.7-0.6-1.2-1.2-1.2h-3.8v2.5h2.5V-45.6z"/>
		</defs>
		<clipPath id="SVGID_6_">
			<use xlink:href="#SVGID_5_"  style="overflow:visible;"/>
		</clipPath>
		<rect x="231.4" y="-55.6" class="st2" width="15" height="15"/>
	</g>
	<g>
		<defs>
			<path id="SVGID_7_" d="M188.9-48.1h2.5v-2.5h-3.8c-0.7,0-1.2,0.6-1.2,1.2v3.8h2.5V-48.1z"/>
		</defs>
		<clipPath id="SVGID_8_">
			<use xlink:href="#SVGID_7_"  style="overflow:visible;"/>
		</clipPath>
		<rect x="181.4" y="-55.6" class="st3" width="15" height="15"/>
	</g>
	<g>
		<defs>
			<path id="SVGID_9_" d="M187.6-22.6h3.8v-2.5h-2.5v-2.5h-2.5v3.8C186.4-23.2,186.9-22.6,187.6-22.6z"/>
		</defs>
		<clipPath id="SVGID_10_">
			<use xlink:href="#SVGID_9_"  style="overflow:visible;"/>
		</clipPath>
		<rect x="181.4" y="-32.6" class="st4" width="15" height="15"/>
	</g>
	<g>
		<defs>
			<rect id="SVGID_11_" x="228.4" y="-8.6" width="2" height="6"/>
		</defs>
		<clipPath id="SVGID_12_">
			<use xlink:href="#SVGID_11_"  style="overflow:visible;"/>
		</clipPath>
		<rect x="223.4" y="-13.6" class="st5" width="12" height="16"/>
	</g>
	<g>
		<defs>
			<rect id="SVGID_13_" x="228.4" y="0.4" width="2" height="2"/>
		</defs>
		<clipPath id="SVGID_14_">
			<use xlink:href="#SVGID_13_"  style="overflow:visible;"/>
		</clipPath>
		<rect x="223.4" y="-4.6" class="st6" width="12" height="12"/>
	</g>
	<g>
		<defs>
			<rect id="SVGID_15_" x="198.4" y="5.4" width="2" height="6"/>
		</defs>
		<clipPath id="SVGID_16_">
			<use xlink:href="#SVGID_15_"  style="overflow:visible;"/>
		</clipPath>
		<rect x="193.4" y="0.4" class="st7" width="12" height="16"/>
	</g>
	<g>
		<defs>
			<rect id="SVGID_17_" x="198.4" y="14.4" width="2" height="2"/>
		</defs>
		<clipPath id="SVGID_18_">
			<use xlink:href="#SVGID_17_"  style="overflow:visible;"/>
		</clipPath>
		<rect x="193.4" y="9.4" class="st8" width="12" height="12"/>
	</g>
</g>
<g>
	<path class="st9" d="M30.1,0.1c0.1,0.1,0.3,0.1,0.4,0.2c1.2,0.5,2,1.2,2.5,2.4c1.6,4.1,2.6,8.3,3.4,12.6c0.1,0.5,0.2,1.1,0.3,1.5
		c0.6-3.3,1.2-6.6,1.8-10c0.4-1.9,2.1-3,4-2.6c1.8,0.4,2.9,2.2,2.6,4c-0.7,3.8-1.1,7.7-1.2,11.7c0.1-0.3,0.2-0.6,0.3-0.8
		c0.7-2.2,1.6-4.2,3-6.1c1.2-1.7,3.2-2.1,4.8-0.9c1.6,1.1,1.8,3.2,0.7,4.9c-1.6,2.3-2.3,5-2.9,7.7c-0.6,2.8,0,5.5,0.6,8.3
		c1.7,7.3,2,14.6,1.4,22.1c-0.6,6.9-2.3,13.5-5,19.8c-0.2,0.5-0.7,0.9-1,1.3c-0.1,0-0.3,0-0.4,0c-1.1-0.5-1.2-1-0.7-2.1
		c1.8-4.4,3.3-9,4.1-13.7c1-5.8,1.3-11.6,0.8-17.4c-0.3-3.8-0.9-7.5-1.8-11.1c-1.2-4.6-0.3-9,1.5-13.2c0.4-1,1-2,1.6-2.9
		c0.4-0.6,0.4-1.2-0.1-1.6c-0.5-0.4-1.1-0.3-1.6,0.4c-1.7,2.5-2.8,5.4-3.4,8.4c-0.3,1.4-0.4,2.9-0.5,4.4c-0.1,1.1-0.8,1.8-1.8,1.8
		c-1,0-1.7-0.7-1.8-1.8c-0.4-6.4,0-12.8,1.2-19.1c0.1-0.5,0.1-1-0.3-1.3c-0.6-0.5-1.5-0.2-1.7,0.7c-0.6,3.4-1.2,6.8-1.7,10.3
		c-0.3,2.1-0.3,4.2-0.5,6.3c-0.1,1.1-0.7,1.7-1.6,1.8c-1,0-1.7-0.5-1.8-1.6c-0.5-5.4-1.4-10.6-2.9-15.8c-0.5-1.6-1.1-3.2-1.7-4.9
		c-0.2-0.6-1-1-1.5-1c-0.6,0.1-1,0.5-1.1,1.1c0,0.3,0,0.6,0.1,0.8c2,6,3.2,12.2,4,18.5c0,0.3,0,0.6,0.1,0.9c0,0.9-0.5,1.6-1.3,1.7
		c-0.9,0.2-1.5-0.3-1.9-1.1c-0.8-1.6-1.5-3.3-2.4-4.7c-2.2-3.2-5.1-5.6-8.6-7.4c-0.2-0.1-0.5-0.2-0.7-0.2c-0.5-0.1-1.1-0.1-1.3,0.6
		c-0.2,0.7,0,1.2,0.6,1.5c2,1.3,3.8,2.7,5.5,4.5c2.5,2.6,4.5,5.6,5.1,9.2c0.2,1.4,0.8,1.9,2.1,2.3c2.1,0.6,4,1.6,5.7,3.1
		c0.5,0.5,0.6,1.2,0.2,1.7c-0.4,0.5-1.1,0.5-1.7,0.1c0,0,0,0-0.1,0c-2.6-2.2-5.8-3.3-9.1-3.4c-2.1-0.1-4.2,0.1-6.4,0.3
		c-0.9,0.1-1.7,0.5-2.5,0.9c-0.8,0.4-1.1,1.2-0.8,2c0.3,0.8,1.1,1.2,2,1c4.3-1.1,8.1-0.2,11.6,2.4c1.8,1.3,2.7,3.1,2.8,5.3
		c0.5,10.7-1.5,20.8-6,30.5c-0.4,0.8-0.6,1.7-1.5,2.1c-0.1,0-0.3,0-0.4,0c-1-0.6-1.2-1-0.7-2c2.3-4.6,3.9-9.4,5-14.4
		c1.1-5.4,1.7-10.8,1.3-16.3c-0.1-1.4-0.7-2.6-1.9-3.4c-2.9-2.1-6.1-2.8-9.6-1.9c-2.1,0.5-4.1-0.6-4.8-2.6c0-0.1-0.1-0.2-0.2-0.4
		c0-0.6,0-1.1,0-1.7c0.5-1.7,1.8-2.7,3.4-3.3c1.7-0.7,3.5-0.8,5.2-0.9c1.4,0,2.8,0,4.2,0c-0.1-1.4-0.6-2.8-1.3-4
		c-1.9-3.8-4.9-6.7-8.5-8.9c-1.9-1.2-2-3.5-1.2-4.9c0.8-1.5,2.9-2.1,4.6-1.3c3.3,1.6,6.1,3.7,8.4,6.4c0.7,0.9,1.4,1.8,2.2,2.8
		c0-0.4-0.1-0.6-0.1-0.8c-0.8-4.6-1.8-9.2-3.3-13.6c-0.5-1.6,0.2-3.4,1.6-4.3c0.3-0.2,0.7-0.3,1-0.5C29.1,0.1,29.6,0.1,30.1,0.1z"/>
	<path class="st9" d="M60.9,13.7c-0.1,4-1.2,7.6-3.7,10.8c-0.2,0.2-0.3,0.4-0.5,0.6c-0.4,0.4-0.9,0.4-1.4,0
		c-0.5-0.4-0.6-0.9-0.4-1.4c0.1-0.2,0.2-0.4,0.3-0.5c3.3-4.5,4.1-9.4,2.3-14.7c-0.1-0.3-0.2-0.6-0.1-0.9c0.1-0.5,0.5-0.8,1-0.9
		c0.6,0,1,0.3,1.2,0.8c0.6,1.7,1,3.5,1.1,5.3C60.9,13.1,60.9,13.4,60.9,13.7z"/>
	<path class="st9" d="M64.3,14.9c0,2.8-0.8,5.5-2.4,7.8c-0.5,0.7-1.1,0.9-1.7,0.5c-0.6-0.4-0.7-1.1-0.2-1.8
		c2.1-3.1,2.4-6.5,1.5-10.1c0-0.1-0.1-0.3-0.1-0.4c-0.2-0.7,0.2-1.3,0.8-1.4c0.6-0.2,1.2,0.1,1.4,0.8C63.5,10.3,64.3,13.8,64.3,14.9
		z"/>
</g>
<g>
	<g>
		<defs>
			<path id="SVGID_19_" d="M301.2,119c-14.1,14.1-37,14.1-51.1,0c-14.1-14.1-14.1-37,0-51.1c7-7,16.3-10.6,25.6-10.6
				c9.3,0,18.5,3.5,25.6,10.6C315.3,82,315.3,104.9,301.2,119z M248.6,66.4c-14.8,14.8-14.8,38.9,0,53.8
				c7.4,7.4,17.2,11.1,26.9,11.1c9.7,0,19.5-3.7,26.9-11.1c14.8-14.8,14.8-38.9,0-53.8C287.6,51.5,263.4,51.6,248.6,66.4z"/>
		</defs>
		<clipPath id="SVGID_20_">
			<use xlink:href="#SVGID_19_"  style="overflow:visible;"/>
		</clipPath>
		<rect x="232.5" y="50.3" class="st10" width="86" height="86"/>
	</g>
</g>
<path class="st11" d="M301.2,119c-14.1,14.1-37,14.1-51.1,0c-14.1-14.1-14.1-37,0-51.1c7-7,16.3-10.6,25.6-10.6
	c9.3,0,18.5,3.5,25.6,10.6C315.3,82,315.3,104.9,301.2,119z M248.6,66.4c-14.8,14.8-14.8,38.9,0,53.8c7.4,7.4,17.2,11.1,26.9,11.1
	c9.7,0,19.5-3.7,26.9-11.1c14.8-14.8,14.8-38.9,0-53.8C287.6,51.5,263.4,51.6,248.6,66.4z"/>
<g>
	<g>
		<defs>
			<path id="SVGID_21_" d="M276.1,125.5c-17.4,0-31.6-14.2-31.6-31.6s14.2-31.6,31.6-31.6s31.6,14.2,31.6,31.6
				S293.5,125.5,276.1,125.5z M276,60.3c-18.5,0-33.5,15-33.5,33.5s15,33.5,33.5,33.5s33.5-15,33.5-33.5S294.5,60.3,276,60.3z"/>
		</defs>
		<clipPath id="SVGID_22_">
			<use xlink:href="#SVGID_21_"  style="overflow:visible;"/>
		</clipPath>
		<rect x="237.5" y="55.3" class="st12" width="77" height="77"/>
	</g>
</g>
<path class="st11" d="M276.1,125.5c-17.4,0-31.6-14.2-31.6-31.6s14.2-31.6,31.6-31.6s31.6,14.2,31.6,31.6S293.5,125.5,276.1,125.5z
	 M276,60.3c-18.5,0-33.5,15-33.5,33.5s15,33.5,33.5,33.5s33.5-15,33.5-33.5S294.5,60.3,276,60.3z"/>
<g>
	<g>
		<defs>
			<path id="SVGID_23_" d="M262.9,79.7l0.2-0.2c1.4-1.2,2.2-3,2-4.9v-0.3c-0.1-1.5,0.5-2.8,1.8-3.6c0.6-0.4,1.3-0.6,1.9-0.6
				c0.7,0,1.4,0.2,2,0.6l0.2,0.1c1.6,1,3.5,1.2,5.2,0.5l0.2-0.1c1.3-0.6,2.8-0.3,3.9,0.6c1.1,1,1.5,2.4,1.2,3.8
				c-0.5,2,0,4.1,1.3,5.6c1,1.1,1.2,2.6,0.6,3.9c-0.6,1.4-1.8,2.2-3.2,2.3h-0.3c-1.8,0.1-3.5,1.1-4.5,2.7l-0.1,0.2
				c-0.8,1.3-2.1,1.9-3.5,1.8s-2.6-1-3.2-2.4l-0.1-0.2c-0.7-1.7-2.2-3-4-3.5l-0.1,0.3c-1.4-0.3-2.5-1.4-2.8-2.8
				C261.3,82.1,261.7,80.6,262.9,79.7z M263.8,88.1l0.2,0.1c1.2,0.3,2.2,1.1,2.6,2.3l0.1,0.2c0.8,2,2.6,3.4,4.8,3.6
				c0.2,0,0.3,0,0.5,0c2,0,3.8-1,4.8-2.7l0.1-0.2c0.6-1.1,1.8-1.7,3-1.8h0.3c2.2-0.1,4-1.5,4.8-3.5s0.5-4.3-0.9-5.9
				c-0.9-1.1-1.2-2.5-0.9-3.9c0.5-2.1-0.1-4.3-1.8-5.7c-1.6-1.4-3.9-1.8-5.9-0.9l-0.2,0.1c-1.1,0.5-2.4,0.4-3.5-0.3l-0.2-0.1
				c-1.8-1.2-4.1-1.2-5.9-0.1c-1.8,1.1-2.9,3.2-2.7,5.4V75c0.1,1.2-0.4,2.5-1.4,3.2l-0.2,0.2c-1.7,1.4-2.4,3.6-1.9,5.7
				C260.1,86,261.7,87.6,263.8,88.1z"/>
		</defs>
		<clipPath id="SVGID_24_">
			<use xlink:href="#SVGID_23_"  style="overflow:visible;"/>
		</clipPath>
		<rect x="254.5" y="63.3" class="st13" width="36" height="36"/>
	</g>
</g>
<path class="st11" d="M262.9,79.7l0.2-0.2c1.4-1.2,2.2-3,2-4.9v-0.3c-0.1-1.5,0.5-2.8,1.8-3.6c0.6-0.4,1.3-0.6,1.9-0.6
	c0.7,0,1.4,0.2,2,0.6l0.2,0.1c1.6,1,3.5,1.2,5.2,0.5l0.2-0.1c1.3-0.6,2.8-0.3,3.9,0.6c1.1,1,1.5,2.4,1.2,3.8c-0.5,2,0,4.1,1.3,5.6
	c1,1.1,1.2,2.6,0.6,3.9c-0.6,1.4-1.8,2.2-3.2,2.3h-0.3c-1.8,0.1-3.5,1.1-4.5,2.7l-0.1,0.2c-0.8,1.3-2.1,1.9-3.5,1.8s-2.6-1-3.2-2.4
	l-0.1-0.2c-0.7-1.7-2.2-3-4-3.5l-0.1,0.3c-1.4-0.3-2.5-1.4-2.8-2.8C261.3,82.1,261.7,80.6,262.9,79.7z M263.8,88.1l0.2,0.1
	c1.2,0.3,2.2,1.1,2.6,2.3l0.1,0.2c0.8,2,2.6,3.4,4.8,3.6c0.2,0,0.3,0,0.5,0c2,0,3.8-1,4.8-2.7l0.1-0.2c0.6-1.1,1.8-1.7,3-1.8h0.3
	c2.2-0.1,4-1.5,4.8-3.5s0.5-4.3-0.9-5.9c-0.9-1.1-1.2-2.5-0.9-3.9c0.5-2.1-0.1-4.3-1.8-5.7c-1.6-1.4-3.9-1.8-5.9-0.9l-0.2,0.1
	c-1.1,0.5-2.4,0.4-3.5-0.3l-0.2-0.1c-1.8-1.2-4.1-1.2-5.9-0.1c-1.8,1.1-2.9,3.2-2.7,5.4V75c0.1,1.2-0.4,2.5-1.4,3.2l-0.2,0.2
	c-1.7,1.4-2.4,3.6-1.9,5.7C260.1,86,261.7,87.6,263.8,88.1z"/>
<g>
	<g>
		<defs>
			<path id="SVGID_25_" d="M269.1,79.2c0.6-0.9,1.5-1.6,2.6-1.8c0.3-0.1,0.6-0.1,0.9-0.1c0.8,0,1.5,0.2,2.2,0.6
				c0.9,0.6,1.6,1.5,1.8,2.6c0.5,2.2-0.9,4.4-3.1,4.9c-1.1,0.2-2.2,0.1-3.1-0.5c-0.9-0.6-1.5-1.5-1.8-2.6
				C268.4,81.3,268.5,80.2,269.1,79.2z M269.3,86.4c1,0.6,2.1,0.9,3.2,0.9c0.5,0,0.9-0.1,1.4-0.2c3.2-0.7,5.2-4,4.5-7.2
				c-0.4-1.6-1.3-2.9-2.7-3.7s-3-1.1-4.5-0.7c-1.6,0.4-2.9,1.3-3.7,2.7c-0.8,1.4-1.1,3-0.8,4.5S268,85.5,269.3,86.4z"/>
		</defs>
		<clipPath id="SVGID_26_">
			<use xlink:href="#SVGID_25_"  style="overflow:visible;"/>
		</clipPath>
		<rect x="261.5" y="70.3" class="st14" width="22" height="22"/>
	</g>
</g>
<path class="st11" d="M269.1,79.2c0.6-0.9,1.5-1.6,2.6-1.8c0.3-0.1,0.6-0.1,0.9-0.1c0.8,0,1.5,0.2,2.2,0.6c0.9,0.6,1.6,1.5,1.8,2.6
	c0.5,2.2-0.9,4.4-3.1,4.9c-1.1,0.2-2.2,0.1-3.1-0.5c-0.9-0.6-1.5-1.5-1.8-2.6C268.4,81.3,268.5,80.2,269.1,79.2z M269.3,86.4
	c1,0.6,2.1,0.9,3.2,0.9c0.5,0,0.9-0.1,1.4-0.2c3.2-0.7,5.2-4,4.5-7.2c-0.4-1.6-1.3-2.9-2.7-3.7s-3-1.1-4.5-0.7
	c-1.6,0.4-2.9,1.3-3.7,2.7c-0.8,1.4-1.1,3-0.8,4.5S268,85.5,269.3,86.4z"/>
<g>
	<g>
		<defs>
			<path id="SVGID_27_" d="M298.8,83.7c0.1,0.6,0,1.3-0.3,2v0.1c-0.1,0.2-0.2,0.5-0.1,0.8c0.1,0.2,0.3,0.4,0.5,0.5
				c0.4,0.2,0.7,0.6,0.8,1.2s0,1.3-0.3,2c-0.1,0.3-0.3,0.5-0.5,0.8c-0.2,0.2-0.3,0.4-0.2,0.7c0,0.3,0.1,0.5,0.3,0.7
				c0.7,0.6,0.8,1.9,0.3,3c-0.3,0.5-0.7,1-1.1,1.3c-0.2,0.1-0.4,0.4-0.4,0.7c0,0.3,0,0.6,0.2,0.8c0.6,0.7,0.7,1.8,0.2,2.9
				c-0.3,0.7-0.8,1.2-1.4,1.4c-0.5,0.2-1,0.2-1.5,0c-0.5-0.2-1,0-1.2,0.4c-0.2,0.4-0.1,0.8,0.2,1.1c0.1,0.4,0.4,1.5-0.1,2.5
				c-0.5,1.1-1.8,1.8-3.7,2.2c-2.1,0.4-3.8,1.2-5.1,2.1l2.7-5.4l4.1-1.4c0.5-0.2,0.7-0.7,0.6-1.2c-0.2-0.5-0.7-0.8-1.2-0.6l-2.3,0.8
				l1.5-3.1l4.1-1.4c0.5-0.2,0.7-0.7,0.6-1.2c-0.2-0.5-0.7-0.8-1.2-0.6l-2.3,0.8l1.6-3.3l4.1-1.4c0.5-0.2,0.7-0.7,0.6-1.2
				c-0.2-0.5-0.7-0.8-1.2-0.6l-2.6,0.8l1.7-3.5c0.2-0.5,0-1-0.4-1.3c-0.1-0.1-0.3-0.1-0.4-0.1c-0.3,0-0.7,0.2-0.8,0.5l-1.7,3.4
				l-0.8-2.3c-0.2-0.5-0.7-0.8-1.2-0.6c-0.4,0.3-0.7,0.8-0.5,1.3l1.3,4.1l-1.6,3.3l-0.8-2.3c-0.2-0.5-0.7-0.8-1.2-0.6
				c-0.5,0.2-0.7,0.7-0.6,1.2l1.3,4.1l-1.3,3.1l-0.8-2.3c-0.2-0.5-0.7-0.8-1.2-0.6c-0.5,0.2-0.7,0.7-0.6,1.2l1.3,4.1l-2.6,5.3
				c-0.1-1.6-0.5-3.3-1.4-5.2c-0.8-1.8-1-3.3-0.5-4.3c0.6-1.3,2.1-1.7,2.1-1.7c0.4-0.1,0.7-0.4,0.7-0.8c0-0.4-0.2-0.8-0.5-1
				c-0.4-0.2-0.7-0.6-0.8-1.2c-0.1-0.6,0-1.3,0.3-2c0.5-1.1,1.5-1.7,2.4-1.6c0.3,0,0.6-0.1,0.8-0.3c0.2-0.2,0.3-0.5,0.3-0.8
				c-0.1-0.6,0.1-1.1,0.3-1.7c0.5-1,1.3-1.6,2.2-1.6l0,0c0.5,0,0.9-0.4,0.9-0.8s0.2-0.7,0.3-1c0.6-1.3,1.9-1.9,2.8-1.5l0.1,0.1
				c0.2,0.1,0.5,0.2,0.8,0.1c0.3-0.1,0.5-0.3,0.6-0.5c0,0,0-0.1,0.1-0.1c0.3-0.7,0.8-1.2,1.4-1.4c0.5-0.2,1-0.2,1.5,0
				C298.4,82.7,298.7,83.1,298.8,83.7z M295.6,80.7c-0.8,0.4-1.5,1-2,1.8c-1.7-0.4-3.7,0.6-4.7,2.5c-0.1,0.3-0.3,0.6-0.3,0.9
				c-1.3,0.3-2.4,1.2-3.1,2.6c-0.3,0.5-0.4,1.1-0.5,1.7c-1.3,0.2-2.6,1.2-3.2,2.6c-0.5,1-0.7,2.2-0.4,3.3c0.1,0.5,0.3,0.9,0.6,1.3
				c-0.7,0.4-1.4,1.1-1.9,2.1c-0.8,1.6-0.6,3.6,0.5,6c2.3,5.1,0.9,8.9,0.5,9.8v0.1c0,0.1,0,0.1-0.1,0.1l0,0l-2.2,4.6
				c-0.2,0.5,0,1,0.4,1.3c0.1,0.1,0.3,0.1,0.4,0.1c0.3,0,0.7-0.2,0.8-0.5l2.2-4.6c0,0,0-0.1,0.1-0.1c0.3-0.6,2.5-4.4,8.1-5.5
				c2.5-0.5,4.2-1.6,5-3.2c0.5-1,0.5-2,0.4-2.9c0.4,0,0.9-0.1,1.3-0.3c1-0.4,1.8-1.3,2.3-2.3c0.7-1.4,0.7-3,0.1-4.2
				c0.4-0.4,0.8-0.9,1.1-1.5c0.8-1.6,0.7-3.4-0.1-4.6c0.1-0.2,0.2-0.4,0.3-0.5c0.5-1,0.7-2.2,0.4-3.3c-0.2-0.8-0.6-1.5-1.1-2
				c0.3-0.9,0.4-1.8,0.2-2.7c-0.2-1.1-0.9-2-1.8-2.5C297.8,80.2,296.7,80.2,295.6,80.7z"/>
		</defs>
		<clipPath id="SVGID_28_">
			<use xlink:href="#SVGID_27_"  style="overflow:visible;"/>
		</clipPath>
		<rect x="273.5" y="75.3" class="st15" width="33" height="51"/>
	</g>
</g>
<path class="st11" d="M298.8,83.7c0.1,0.6,0,1.3-0.3,2v0.1c-0.1,0.2-0.2,0.5-0.1,0.8c0.1,0.2,0.3,0.4,0.5,0.5
	c0.4,0.2,0.7,0.6,0.8,1.2s0,1.3-0.3,2c-0.1,0.3-0.3,0.5-0.5,0.8c-0.2,0.2-0.3,0.4-0.2,0.7c0,0.3,0.1,0.5,0.3,0.7
	c0.7,0.6,0.8,1.9,0.3,3c-0.3,0.5-0.7,1-1.1,1.3c-0.2,0.1-0.4,0.4-0.4,0.7c0,0.3,0,0.6,0.2,0.8c0.6,0.7,0.7,1.8,0.2,2.9
	c-0.3,0.7-0.8,1.2-1.4,1.4c-0.5,0.2-1,0.2-1.5,0c-0.5-0.2-1,0-1.2,0.4c-0.2,0.4-0.1,0.8,0.2,1.1c0.1,0.4,0.4,1.5-0.1,2.5
	c-0.5,1.1-1.8,1.8-3.7,2.2c-2.1,0.4-3.8,1.2-5.1,2.1l2.7-5.4l4.1-1.4c0.5-0.2,0.7-0.7,0.6-1.2c-0.2-0.5-0.7-0.8-1.2-0.6l-2.3,0.8
	l1.5-3.1l4.1-1.4c0.5-0.2,0.7-0.7,0.6-1.2c-0.2-0.5-0.7-0.8-1.2-0.6l-2.3,0.8l1.6-3.3l4.1-1.4c0.5-0.2,0.7-0.7,0.6-1.2
	c-0.2-0.5-0.7-0.8-1.2-0.6l-2.6,0.8l1.7-3.5c0.2-0.5,0-1-0.4-1.3c-0.1-0.1-0.3-0.1-0.4-0.1c-0.3,0-0.7,0.2-0.8,0.5l-1.7,3.4
	l-0.8-2.3c-0.2-0.5-0.7-0.8-1.2-0.6c-0.4,0.3-0.7,0.8-0.5,1.3l1.3,4.1l-1.6,3.3l-0.8-2.3c-0.2-0.5-0.7-0.8-1.2-0.6
	c-0.5,0.2-0.7,0.7-0.6,1.2l1.3,4.1l-1.3,3.1l-0.8-2.3c-0.2-0.5-0.7-0.8-1.2-0.6c-0.5,0.2-0.7,0.7-0.6,1.2l1.3,4.1l-2.6,5.3
	c-0.1-1.6-0.5-3.3-1.4-5.2c-0.8-1.8-1-3.3-0.5-4.3c0.6-1.3,2.1-1.7,2.1-1.7c0.4-0.1,0.7-0.4,0.7-0.8c0-0.4-0.2-0.8-0.5-1
	c-0.4-0.2-0.7-0.6-0.8-1.2c-0.1-0.6,0-1.3,0.3-2c0.5-1.1,1.5-1.7,2.4-1.6c0.3,0,0.6-0.1,0.8-0.3c0.2-0.2,0.3-0.5,0.3-0.8
	c-0.1-0.6,0.1-1.1,0.3-1.7c0.5-1,1.3-1.6,2.2-1.6l0,0c0.5,0,0.9-0.4,0.9-0.8s0.2-0.7,0.3-1c0.6-1.3,1.9-1.9,2.8-1.5l0.1,0.1
	c0.2,0.1,0.5,0.2,0.8,0.1c0.3-0.1,0.5-0.3,0.6-0.5c0,0,0-0.1,0.1-0.1c0.3-0.7,0.8-1.2,1.4-1.4c0.5-0.2,1-0.2,1.5,0
	C298.4,82.7,298.7,83.1,298.8,83.7z M295.6,80.7c-0.8,0.4-1.5,1-2,1.8c-1.7-0.4-3.7,0.6-4.7,2.5c-0.1,0.3-0.3,0.6-0.3,0.9
	c-1.3,0.3-2.4,1.2-3.1,2.6c-0.3,0.5-0.4,1.1-0.5,1.7c-1.3,0.2-2.6,1.2-3.2,2.6c-0.5,1-0.7,2.2-0.4,3.3c0.1,0.5,0.3,0.9,0.6,1.3
	c-0.7,0.4-1.4,1.1-1.9,2.1c-0.8,1.6-0.6,3.6,0.5,6c2.3,5.1,0.9,8.9,0.5,9.8v0.1c0,0.1,0,0.1-0.1,0.1l0,0l-2.2,4.6
	c-0.2,0.5,0,1,0.4,1.3c0.1,0.1,0.3,0.1,0.4,0.1c0.3,0,0.7-0.2,0.8-0.5l2.2-4.6c0,0,0-0.1,0.1-0.1c0.3-0.6,2.5-4.4,8.1-5.5
	c2.5-0.5,4.2-1.6,5-3.2c0.5-1,0.5-2,0.4-2.9c0.4,0,0.9-0.1,1.3-0.3c1-0.4,1.8-1.3,2.3-2.3c0.7-1.4,0.7-3,0.1-4.2
	c0.4-0.4,0.8-0.9,1.1-1.5c0.8-1.6,0.7-3.4-0.1-4.6c0.1-0.2,0.2-0.4,0.3-0.5c0.5-1,0.7-2.2,0.4-3.3c-0.2-0.8-0.6-1.5-1.1-2
	c0.3-0.9,0.4-1.8,0.2-2.7c-0.2-1.1-0.9-2-1.8-2.5C297.8,80.2,296.7,80.2,295.6,80.7z"/>
<g>
	<g>
		<defs>
			<path id="SVGID_29_" d="M349.8,127.1h5.6c1-3.1,4.1-13.6,4.8-19.4c-1.7-0.8-6.2-1.6-10.5-1.9v21.3H349.8z M356.4,129.8h-7.9
				c-0.7,0-1.3-0.6-1.3-1.3v-24.1c0-0.4,0.2-0.7,0.4-1c0.3-0.3,0.6-0.4,1-0.4c2.7,0.2,11.8,0.9,14,3c0.3,0.3,0.4,0.7,0.4,1.1
				c-0.6,7-5.2,21.1-5.3,21.7C357.5,129.4,357,129.8,356.4,129.8z"/>
		</defs>
		<clipPath id="SVGID_30_">
			<use xlink:href="#SVGID_29_"  style="overflow:visible;"/>
		</clipPath>
		<rect x="342.2" y="98" class="st16" width="25.8" height="36.8"/>
	</g>
</g>
<g>
	<g>
		<defs>
			<path id="SVGID_31_" d="M353.8,111.4c0-0.7,0.6-1.2,1.2-1.2c0.6,0,1.2,0.6,1.2,1.2c0,0.7-0.6,1.2-1.2,1.2
				C354.4,112.6,353.8,112.1,353.8,111.4z M358.8,111.4c0-2.1-1.7-3.7-3.7-3.7c-2.1,0-3.7,1.7-3.7,3.7s1.7,3.7,3.7,3.7
				C357.1,115.2,358.8,113.5,358.8,111.4z"/>
		</defs>
		<clipPath id="SVGID_32_">
			<use xlink:href="#SVGID_31_"  style="overflow:visible;"/>
		</clipPath>
		<rect x="346.4" y="102.7" class="st17" width="17.5" height="17.5"/>
	</g>
</g>
<g>
	<g>
		<defs>
			<path id="SVGID_33_" d="M414.1,100.4h-57.2c-3,0-5.5-2.1-6.1-5h69.3C419.6,98.3,417,100.4,414.1,100.4z M391.2,102.9h14.7
				l-12.2,8.7h-14.4c-0.7,0-1.2-0.6-1.2-1.2c0-0.7,0.6-1.2,1.2-1.2h8.1c2.4,0,4.3-2,4.3-4.4C391.7,104.1,391.5,103.5,391.2,102.9z
				 M411.7,107.6l-15,12.5c-1.1,0.9-2.5,1.4-4,1.4h-32.8l3.2-13.1l5.6-4.7c0.7-0.6,1.5-0.9,2.4-0.9h16.1c1,0,1.9,0.8,1.9,1.9
				c0,1-0.8,1.9-1.9,1.9h-8c-2.1,0-3.7,1.7-3.7,3.7s1.7,3.7,3.7,3.7h15c0.3,0,0.5-0.1,0.7-0.2l14.2-10.2c0.5-0.4,1.2-0.5,1.9-0.4
				c0.6,0.1,1.2,0.5,1.5,1.1C413.1,105.5,412.8,106.9,411.7,107.6z M385.5,63c16.5,0,29.8,13.4,29.8,29.9h-59.6
				C355.7,76.4,369,63,385.5,63z M421.5,92.9h-3.7c0-17.4-13.7-31.7-31.1-32.4v-3.7h2.5v-2.5h-7.5v2.5h2.5v3.7
				c-17.3,0.7-31,15-31,32.4h-3.8c-0.7,0-1.2,0.6-1.2,1.2c0,4.8,3.9,8.7,8.7,8.7h9l-3.3,2.8c-0.2-0.2-1.7,0-1.9,0v2.2l-3.2,16.2h5.7
				h29.6c2,0,4-0.7,5.5-2l15-12.5c2.1-1.5,2.6-4.3,1.3-6.5c0-0.1-0.1-0.2-0.2-0.2c4.7-0.2,8.3-4,8.3-8.7
				C422.8,93.5,422.2,92.9,421.5,92.9z"/>
		</defs>
		<clipPath id="SVGID_34_">
			<use xlink:href="#SVGID_33_"  style="overflow:visible;"/>
		</clipPath>
		<rect x="343.2" y="49.3" class="st18" width="84.6" height="79.7"/>
	</g>
</g>
<g>
	<g>
		<defs>
			<path id="SVGID_35_" d="M362.2,80.6c0.6,0.3,1.1,0.1,1.7-0.4c0.7-1,1.4-1.9,2.2-2.8c0.2-0.7,0.1-1.3-0.4-1.7
				c-0.4-0.4-0.9-0.4-1.5,0c-0.9,1-1.7,2-2.4,3.1C361.5,79.7,361.6,80.4,362.2,80.6z"/>
		</defs>
		<clipPath id="SVGID_36_">
			<use xlink:href="#SVGID_35_"  style="overflow:visible;"/>
		</clipPath>
		<rect x="356.6" y="70.4" class="st19" width="14.5" height="15.4"/>
	</g>
</g>
<g>
	<g>
		<defs>
			<path id="SVGID_37_" d="M368.4,75c4.6-4.3,10.7-6.8,17-6.8c0.8-0.1,1.3-0.5,1.3-1.2c0-0.7-0.4-1.1-1.3-1.3
				c-6.9,0-13.6,2.7-18.6,7.5c-0.4,0.8-0.4,1.4,0,1.8C367.2,75.4,367.8,75.4,368.4,75z"/>
		</defs>
		<clipPath id="SVGID_38_">
			<use xlink:href="#SVGID_37_"  style="overflow:visible;"/>
		</clipPath>
		<rect x="361.5" y="60.8" class="st20" width="30.2" height="19.6"/>
	</g>
</g>
<g>
	<defs>
		<ellipse id="SVGID_39_" cx="515.2" cy="136.7" rx="7.1" ry="7"/>
	</defs>
	<clipPath id="SVGID_40_">
		<use xlink:href="#SVGID_39_"  style="overflow:visible;"/>
	</clipPath>
	<g class="st21">
		<defs>
			<rect id="SVGID_41_" x="346.6" y="43.2" width="197.4" height="119.2"/>
		</defs>
		<clipPath id="SVGID_42_">
			<use xlink:href="#SVGID_41_"  style="overflow:visible;"/>
		</clipPath>
		<rect x="489.5" y="111.1" class="st22" width="51.4" height="51.3"/>
	</g>
</g>
<g>
	<defs>
		<ellipse id="SVGID_43_" cx="490.1" cy="136.7" rx="7.1" ry="7"/>
	</defs>
	<clipPath id="SVGID_44_">
		<use xlink:href="#SVGID_43_"  style="overflow:visible;"/>
	</clipPath>
	<g class="st23">
		<defs>
			<rect id="SVGID_45_" x="346.6" y="43.2" width="197.4" height="119.2"/>
		</defs>
		<clipPath id="SVGID_46_">
			<use xlink:href="#SVGID_45_"  style="overflow:visible;"/>
		</clipPath>
		<rect x="464.4" y="111.1" class="st24" width="51.4" height="51.3"/>
	</g>
</g>
<g>
	<defs>
		<path id="SVGID_47_" d="M469.6,79.7h60.7c1.1,0,2.2,0.5,2.9,1.4c0.7,0.9,0.9,2.1,0.5,3.2c-1.8,5.8-4.1,13.1-5.6,17.8
			c-0.5,1.5-1.8,2.5-3.4,2.5h-47.3C474.7,96,472.3,88,469.6,79.7z M447.2,61.8c-1.3,0-2.5,0.7-3.1,1.8c-0.6,1.1-0.6,2.5,0,3.6
			c0.6,1.1,1.8,1.8,3.1,1.8h9c1.6,0,2.9,1,3.4,2.5c0.4,1.2,1.1,3.6,1.6,5.1c0.1,0.4,0.2,0.7,0.3,1.1c2.9,9.3,6.5,20.7,9.7,31
			c0.1,0.4,0.2,0.7,0.3,1.1c0.9,2.8,2.1,6.7,2.7,8.7c1.4,4.5,5.5,7.5,10.2,7.5h41c1.3,0,2.5-0.7,3.1-1.8c0.6-1.1,0.6-2.5,0-3.6
			c-0.6-1.1-1.8-1.8-3.1-1.8h-41c-1.6,0-2.9-1-3.4-2.5c-0.3-1.1-1-3.3-1.4-4.6h45.1c4.7,0,8.8-3.1,10.2-7.5c0,0,0,0,0,0
			c1.5-4.8,3.7-12,5.6-17.8c1-3.2,0.4-6.8-1.6-9.5c-2-2.7-5.2-4.4-8.6-4.4h-62.9c-0.3-0.9-0.8-2.5-1-3.2c-1.4-4.5-5.5-7.5-10.2-7.5
			L447.2,61.8L447.2,61.8z"/>
	</defs>
	<clipPath id="SVGID_48_">
		<use xlink:href="#SVGID_47_"  style="overflow:visible;"/>
	</clipPath>
	<g class="st25">
		<defs>
			<rect id="SVGID_49_" x="346.6" y="43.2" width="197.4" height="119.2"/>
		</defs>
		<clipPath id="SVGID_50_">
			<use xlink:href="#SVGID_49_"  style="overflow:visible;"/>
		</clipPath>
		<rect x="425" y="43.2" class="st26" width="134.6" height="101.4"/>
	</g>
</g>
</svg>
