<?xml version="1.0" encoding="utf-8"?>
<!-- Generator: Adobe Illustrator 22.0.1, SVG Export Plug-In . SVG Version: 6.00 Build 0)  -->
<svg version="1.1" id="Capa_1" xmlns="http://www.w3.org/2000/svg" xmlns:xlink="http://www.w3.org/1999/xlink" x="0px" y="0px"
	 viewBox="0 0 237.3 88.8" style="enable-background:new 0 0 237.3 88.8;" xml:space="preserve">
<style type="text/css">
	.st0{fill:#FFFFFF;}
</style>
<g>
	<g>
		<path class="st0" d="M150.3,3.2c0.8,0.5,1.5,1.2,2,2c0.5,0.9,0.7,1.9,0.7,2.9c0,1.1-0.2,2.1-0.7,2.9c-0.5,0.9-1.1,1.5-2,2
			c-0.8,0.5-1.8,0.7-2.8,0.7c-1,0-2-0.2-2.8-0.7c-0.8-0.5-1.5-1.2-2-2c-0.5-0.9-0.7-1.9-0.7-2.9c0-1.1,0.2-2.1,0.7-2.9s1.1-1.5,2-2
			c0.8-0.5,1.8-0.7,2.8-0.7C148.6,2.4,149.5,2.7,150.3,3.2z M145.5,4.3c-0.6,0.4-1.1,0.9-1.4,1.5c-0.3,0.7-0.5,1.4-0.5,2.3
			c0,0.9,0.2,1.6,0.5,2.3c0.3,0.7,0.8,1.2,1.4,1.5c0.6,0.4,1.3,0.5,2.1,0.5c0.8,0,1.4-0.2,2-0.5c0.6-0.4,1.1-0.9,1.4-1.5
			c0.3-0.7,0.5-1.4,0.5-2.3c0-0.9-0.2-1.7-0.5-2.3c-0.3-0.7-0.8-1.2-1.4-1.5c-0.6-0.4-1.3-0.5-2-0.5C146.8,3.8,146.1,4,145.5,4.3z"
			/>
		<path class="st0" d="M163,13.7l-2.9-4.6h-1.6v4.6h-1.4V2.6h3.7c1.3,0,2.2,0.3,2.8,0.9c0.6,0.6,0.9,1.4,0.9,2.4
			c0,0.9-0.3,1.6-0.8,2.2c-0.5,0.6-1.2,0.9-2.2,1l3,4.6H163z M158.6,8.1h2.1c1.6,0,2.4-0.7,2.4-2.1c0-1.4-0.8-2.1-2.4-2.1h-2.1V8.1z
			"/>
		<path class="st0" d="M177.2,11.1c-0.5,0.8-1.1,1.5-2,1.9c-0.9,0.5-1.9,0.7-3.2,0.7h-3.5V2.6h3.5c1.2,0,2.3,0.2,3.2,0.7
			c0.9,0.4,1.5,1.1,2,1.9c0.5,0.8,0.7,1.8,0.7,3C177.9,9.3,177.7,10.2,177.2,11.1z M175.3,11.3c0.8-0.7,1.2-1.8,1.2-3.2
			c0-1.4-0.4-2.4-1.1-3.2c-0.8-0.8-1.9-1.1-3.3-1.1h-2v8.6h2C173.4,12.4,174.5,12,175.3,11.3z"/>
		<path class="st0" d="M183.5,3.7v3.8h4.2v1.1h-4.2v3.9h4.7v1.2h-6.1V2.6h6.1v1.2H183.5z"/>
		<path class="st0" d="M198.2,13.7l-2.9-4.6h-1.6v4.6h-1.4V2.6h3.7c1.3,0,2.2,0.3,2.8,0.9c0.6,0.6,0.9,1.4,0.9,2.4
			c0,0.9-0.3,1.6-0.8,2.2c-0.5,0.6-1.2,0.9-2.2,1l3,4.6H198.2z M193.7,8.1h2.1c1.6,0,2.4-0.7,2.4-2.1c0-1.4-0.8-2.1-2.4-2.1h-2.1
			V8.1z"/>
		<path class="st0" d="M216.9,8.9c0.4,0.5,0.6,1.1,0.6,1.8c0,0.9-0.3,1.6-0.9,2.2c-0.6,0.5-1.5,0.8-2.7,0.8h-4.1V2.6h4.1
			c1.1,0,2,0.2,2.5,0.7c0.6,0.5,0.9,1.2,0.9,2c0,0.7-0.2,1.3-0.6,1.7c-0.4,0.4-0.9,0.7-1.5,0.9C215.9,8.1,216.4,8.4,216.9,8.9z
			 M211.2,7.5h2.4c0.7,0,1.2-0.2,1.6-0.5c0.4-0.3,0.6-0.8,0.6-1.4c0-0.6-0.2-1-0.6-1.3c-0.4-0.3-0.9-0.5-1.7-0.5h-2.3V7.5z
			 M215.4,12c0.4-0.3,0.6-0.8,0.6-1.5c0-0.6-0.2-1.1-0.6-1.5c-0.4-0.4-1-0.5-1.8-0.5h-2.4v4h2.4C214.4,12.5,215,12.3,215.4,12z"/>
		<path class="st0" d="M229.4,2.6l-3.6,6.9v4.2h-1.5V9.5l-3.7-6.9h1.7L225,8l2.7-5.4H229.4z"/>
	</g>
	<g>
		<path class="st0" d="M4.8,59.2c-0.6-6.1,4.4-42.7,7.3-42.7c2.3,0,6.7,0.9,7.6,2.3c-1.4,1.9-4.7,15.4-6.5,27.3
			C20.1,23.7,27.1,11,29.1,11c3.4,0,8.3,2.2,9.4,4.7c-1,2.7-6.6,21.4-8.1,33.3C36,32.4,41.5,20.7,45.2,20.7c2.9,0,7.9,3.7,8.2,6
			c-2.3,4.4-7.2,25.5-6.4,35.3c2.8-1,5.1-4.2,5.1-4.2c1.7-0.1,0.3,8.5-5.4,8.5c-1.4,0-3-1.1-4.2-2.6c-1.9-0.6-3-1.7-3.1-3.1
			c-0.6-14.8,4.3-30.2,5.5-34.7c-3.1,3.5-10.3,18.8-13.7,32.8c0.3,1.7-8.4-1-8.4-4.6c0-7.8,4.5-26.5,6.7-36.8
			c-2.3,3-12.3,21.9-16.7,47.4C8.8,64.9,5,61.2,4.8,59.2z"/>
		<path class="st0" d="M89,42.8h0.3c0.7,0,2.1,0.6,2.1,1.1c0.1,0.6-4.8,18.5-12,18.5c-4.7,0-7.6-3.4-8.1-7.7
			c-0.1-0.2-0.1-0.4-0.1-0.6c-1.7,5.6-4.1,10.2-8.2,10.2c-3,0-7.6-2.8-8.3-9.3c-1-8.8,3.6-26.1,12.7-26.1c3.7,0,13.4,5,11.2,9
			l-0.3,0.3c1.7,0.8,3.2,2.1,3.8,3.7c-2.3,6.7-4,15.6-1.7,15.6C84.1,57.5,89,42.8,89,42.8z M73.3,38.7c-0.5-3.2-1.4-4.8-2.8-4.8
			c-5.8,0-10.2,25-6.5,25C66.7,59,71.4,44.8,73.3,38.7z"/>
		<path class="st0" d="M119.7,42.8c0.7-0.2,2.4,0.5,2.3,1.1c-0.1,1.6-5.3,19.6-11.9,19.6c-4.8,0-8.3-3.4-8.9-7.7
			c-0.6-5.7,1.8-14.3,3-18.8c0.5-1.8-0.4-2-1.8-0.1c-2.7,3.9-8.4,13.6-9.2,24.8c-4,0-7.2-2.8-7.6-6.5c-0.6-6.3,2.5-23.6,4.2-23.6
			c1.7,0,5.1,0.4,7.6,2.7c-0.8,1.8-2.3,6.7-3.5,11.6c3.4-8.3,8.9-16.3,10.6-16.3c3.8,0,9.6,5,9.6,6.5c-1.5,2.7-7.6,22.4-3.6,22.4
			C114.1,58.5,119.7,42.8,119.7,42.8z"/>
		<path class="st0" d="M150.3,42.8h0.3c0.7,0,2.1,0.6,2.1,1.1c0.1,0.6-4.8,18.5-12,18.5c-4.7,0-7.6-3.4-8.1-7.7
			c-0.1-0.2-0.1-0.4-0.1-0.6c-1.7,5.6-4.1,10.2-8.2,10.2c-3,0-7.6-2.8-8.3-9.3c-1-8.8,3.6-26.1,12.7-26.1c3.7,0,13.4,5,11.2,9
			l-0.3,0.3c1.7,0.8,3.2,2.1,3.8,3.7c-2.3,6.7-4,15.6-1.7,15.6C145.3,57.5,150.3,42.8,150.3,42.8z M134.6,38.7
			c-0.5-3.2-1.4-4.8-2.8-4.8c-5.8,0-10.2,25-6.5,25C128,59,132.7,44.8,134.6,38.7z"/>
		<path class="st0" d="M160.2,67c1-3.4,1.9-7.2,2.6-10.9c-1.7,4.7-3.9,8.2-7.5,8.2c-3,0-7.6-2.8-8.3-9.3c-1-8.8,3.6-26.1,12.7-26.1
			c3.7,0,13.4,5,11.2,9c-0.2,0.3-0.3,0.4-0.6,0.5c1.6,1,2.9,2.2,3.1,3c0.1,1.6-1.1,11.2-4,21.1c4.7-4.9,9.6-14.3,11.5-20.2
			c1.2-0.1,2.3,1,2.3,1.4c-1.7,8.8-9.3,22-15.6,24.9c-3.5,9.4-8.5,17.6-15.6,17.6c-5.9,0-12.4-5.6-12.8-11
			C138,64.9,150.6,67.9,160.2,67z M159.1,70.8c-8.3,0.7-13.3-1-13.1,4.2c0.1,2.9,2.3,6.3,5.1,6.3C154.3,81.3,156.9,76.9,159.1,70.8z
			 M165.5,38.8c-0.5-3.3-1.3-4.9-2.7-4.9c-5.8,0-10.2,25-6.5,25C159,59,163.7,44.8,165.5,38.8z"/>
		<path class="st0" d="M176.9,51c0-9.6,5.6-21.1,11.5-21.1c0.7,0,1.6,0.2,2.4,0.5c0.8-1.1,2.2-1.8,3-1.8c3.7,1,5.1,4.3,5.1,8.1
			c0,8.1-6.5,18.3-13.8,14.6v1.1c0,3.7,1.9,7.5,5.7,7.5c6.5,0,12.3-11.2,14.3-17.2c1.3,0,2.2,1,2.3,1.6c0,0-5.4,20.6-18.9,20.6
			C180.9,64.8,176.9,58,176.9,51z M192.2,35c-2.7,1.6-5.8,7.6-6.8,13.7C191.9,49.9,194.6,37.5,192.2,35z"/>
		<path class="st0" d="M211,55.7c-0.3-3.3,1.4-14,3.8-18.6c-2.1,0.3-3.8,0.5-5.3,0.4l-2.8,9c-0.6,0.5-2.2-0.2-2.3-2
			c0.4-1.2,1.5-4.7,2.3-7.5c-2.7-0.9-4-2.7-4-5.1c0-3,1.8-7.8,4.5-7.8c2.1,0,4.5,1.3,5.7,3.1c-0.6,0.4-2.2,4.4-3,6.8
			c2.4,0,5.9-1.5,6.6-1.7c1.7,0,7.1,3.5,7.4,4.9c-1,1.9-5.4,12.5-5.4,18.1c0,2.1,1,3,1.8,3c3.7,0,9.4-15.5,9.4-15.5h0.3
			c0.7,0,2.1,0.7,2.1,1.2c0.1,0.6-5.6,19.2-12.8,19.2C216.1,63.2,211.5,61.2,211,55.7z"/>
	</g>
</g>
</svg>
