<svg xmlns="http://www.w3.org/2000/svg" viewBox="0 0 512 257" width="512" height="257">
	<style>
		tspan { white-space:pre }
		.shp0 { fill: #ffffff } 
	</style>
	<g id="Layer">
		<g id="Layer">
			<g id="Layer">
				<path id="Layer" class="shp0" d="M512,186.04c0,21.48 -17.48,38.96 -38.96,38.96l-329.69,10.66c-0.12,0.01 -0.23,0.01 -0.35,0.01c-20.15,0 -37.27,-13.74 -41.65,-33.42l-2.06,-9.25h-63.13c-19.94,0 -36.17,-16.23 -36.17,-36.17c0,-6.03 1.52,-12.02 4.4,-17.31c0,0 61.55,-112.7 61.96,-113.2c2.02,-2.52 5.08,-3.99 8.31,-3.99h359.42c19.31,0 36.25,13.02 41.23,31.67l35.31,121.78c0.92,3.42 1.38,6.81 1.38,10.26zM94.56,171.67l-24.14,-108.62l-47.29,86.68c-1.17,2.17 -1.79,4.63 -1.79,7.1c0,8.18 6.64,14.83 14.83,14.83zM490.67,186.04c0,-1.55 -0.19,-3.06 -0.58,-4.49l-35.33,-121.83c-2.54,-9.54 -11.02,-16.05 -20.67,-16.05h-346.12l34.23,153.96c2.17,9.79 10.65,16.64 20.67,16.71l329.83,-10.66c10.06,-0.01 17.98,-7.92 17.98,-17.63z" />
				<path id="Layer" class="shp0" d="M393.88,99.02l-211.52,6.62c-5.9,0.18 -10.52,5.1 -10.33,10.99c0.19,5.77 4.92,10.33 10.67,10.33c0.1,0 0.23,0 0.33,0l211.52,-6.62c5.9,-0.18 10.52,-5.1 10.33,-10.99c-0.19,-5.87 -4.94,-10.91 -11,-10.32z" />
				<path id="Layer" class="shp0" d="M362.31,143.34l-148.46,4.63c-5.9,0.19 -10.52,5.12 -10.33,11c0.19,5.77 4.92,10.33 10.67,10.33c0.1,0 0.23,0 0.33,-0.01l148.46,-4.62c5.9,-0.19 10.52,-5.12 10.33,-11c-0.19,-5.88 -4.98,-10.74 -11,-10.32z" />
			</g>
		</g>
	</g>
	<g id="Layer">
	</g>
	<g id="Layer">
	</g>
	<g id="Layer">
	</g>
	<g id="Layer">
	</g>
	<g id="Layer">
	</g>
	<g id="Layer">
	</g>
	<g id="Layer">
	</g>
	<g id="Layer">
	</g>
	<g id="Layer">
	</g>
	<g id="Layer">
	</g>
	<g id="Layer">
	</g>
	<g id="Layer">
	</g>
	<g id="Layer">
	</g>
	<g id="Layer">
	</g>
	<g id="Layer">
	</g>
</svg>