<svg xmlns="http://www.w3.org/2000/svg" xmlns:xlink="http://www.w3.org/1999/xlink" width="188" height="77" viewBox="0 0 188 77">
    <defs>
        <path id="a" d="M.293.027h9.459v11.83H.292z"/>
    </defs>
    <g fill="none" fill-rule="evenodd">
        <path fill="#FFF" d="M94.067 1.97a4.098 4.098 0 0 0-1.69 1.595c-.408.693-.611 1.504-.611 2.435 0 .92.203 1.729.61 2.426.407.699.97 1.233 1.691 1.604.72.372 1.537.557 2.452.557.901 0 1.712-.188 2.433-.565a4.156 4.156 0 0 0 1.69-1.604c.407-.692.61-1.498.61-2.418 0-.93-.203-1.742-.61-2.435a4.102 4.102 0 0 0-1.69-1.595c-.721-.372-1.532-.557-2.433-.557-.915 0-1.732.185-2.452.557M99.834.765a5.807 5.807 0 0 1 2.32 2.135c.564.914.846 1.948.846 3.1 0 1.153-.282 2.185-.846 3.1a5.805 5.805 0 0 1-2.32 2.135c-.983.51-2.088.765-3.315.765-1.228 0-2.34-.255-3.335-.765-.996-.51-1.775-1.221-2.339-2.135C90.282 8.185 90 7.153 90 6c0-1.152.282-2.186.845-3.1.564-.914 1.343-1.626 2.34-2.135C94.18.255 95.29 0 96.518 0c1.227 0 2.332.255 3.315.765M108.526 5.975h2.23c1.734 0 2.6-.772 2.6-2.315s-.866-2.315-2.6-2.315h-2.23v4.63zM113.273 12l-3.086-4.902h-1.66V12H107V0h3.891c1.342 0 2.348.326 3.019.98.67.651 1.006 1.517 1.006 2.595 0 .976-.268 1.761-.805 2.357-.536.596-1.314.968-2.33 1.115L115 12h-1.727zM127.205 9.396c.82-.806 1.23-1.94 1.23-3.404 0-1.465-.408-2.602-1.221-3.413-.814-.812-2-1.217-3.56-1.217h-2.122v9.242h2.121c1.549 0 2.733-.402 3.552-1.208m2.071-.23c-.483.902-1.193 1.6-2.13 2.094-.937.493-2.062.74-3.375.74H120V0h3.771c1.313 0 2.438.24 3.375.723a4.893 4.893 0 0 1 2.13 2.077c.483.902.724 1.966.724 3.192 0 1.214-.241 2.272-.724 3.174M136.404 1.26v4.102h4.133v1.191h-4.133v4.187H141V12h-6V0h6v1.26zM147.526 5.975h2.23c1.734 0 2.6-.772 2.6-2.315s-.866-2.315-2.6-2.315h-2.23v4.63zM152.273 12l-3.086-4.902h-1.66V12H146V0h3.891c1.342 0 2.348.326 3.019.98.67.651 1.006 1.517 1.006 2.595 0 .976-.268 1.761-.805 2.357-.536.596-1.314.968-2.33 1.115L154 12h-1.727zM171.82 10.145c.43-.375.645-.902.645-1.583 0-.67-.22-1.194-.66-1.575-.442-.38-1.054-.57-1.837-.57h-2.482v4.29H170c.784 0 1.39-.188 1.82-.562zm-4.334-4.885h2.482c.728 0 1.287-.176 1.673-.528.386-.352.58-.845.58-1.481 0-.613-.191-1.095-.572-1.447-.381-.351-.963-.527-1.747-.527h-2.416V5.26zm5.853 1.582c.44.545.661 1.186.661 1.924 0 .976-.318 1.759-.955 2.349-.637.59-1.56.885-2.767.885H166V0h4.212c1.154 0 2.03.267 2.629.8.599.534.898 1.265.898 2.196 0 .771-.199 1.395-.596 1.872a2.678 2.678 0 0 1-1.527.92c.708.158 1.282.51 1.723 1.054z"/>
        <g transform="translate(178)">
            <mask id="b" fill="#fff">
                <use xlink:href="#a"/>
            </mask>
            <path fill="#FFF" d="M9.752.027l-3.937 7.35v4.48H4.247v-4.48L.293.026h1.806l2.949 5.722L7.979.027z" mask="url(#b)"/>
        </g>
        <path fill="#FFF" d="M68.934 34C72.635 34 77 25.978 77 21.87c0-3.62-4.84-5.87-7.401-5.87C65.519 16 64 21.967 64 26.272 64 31.554 66.847 34 68.934 34"/>
        <path fill="#FFF" d="M168.558 64.523c-3.142-1.247-6.99-3.245-9.98-4.26a63.405 63.405 0 0 0 1.914-5.023c.013-.01.028-.016.04-.026l3.578-10.462c.387 6.91 4.062 11.901 4.545 17.084.097.96 0 1.92-.097 2.687m-6.866 6.43c-3.578 0-3.965-4.99-2.998-5.662.677-.48 3.385.384 8.8 2.4-1.643 2.687-4.641 3.263-5.802 3.263M55.123 20.374c.774 4.32-4.158 24.282-9.67 33.592 1.547-14.396 7.35-33.591 9.67-33.591M89.84 42.449c2.708 2.783-.29 16.508-7.543 15.164 1.064-6.718 4.545-13.437 7.543-15.164m95.643 8.158c-1.74 5.566-4.545 10.653-7.833 13.916.097-.96.097-1.92 0-2.879-.774-6.43-6.48-13.34-6.48-16.508 0-2.879 2.999-5.47 5.126-5.374.774-1.824-4.448-5.087-7.833-5.087h-.387c-3.578.192-4.835 3.071-6.48 8.062a205.85 205.85 0 0 1-2.838 8.148c-.02.004-.043.005-.062.01-1.085 3.072-2.402 6.11-3.822 8.805-1.89.374-2.799 2.236-2.751 4.575-2.106 3.009-4.257 4.951-6.096 4.951-4.448 0-2.127-13.916.87-25.817 3.87-.288 7.447-.48 7.93 0 1.161-3.36.194-6.814-2.224-6.814-.87 0-2.32.191-3.964.383 1.353-4.99 2.707-8.83 3.287-9.885-1.45-1.92-5.899-3.071-8.317-3.071-1.16 0-3.094 6.334-4.932 14.204-2.224.192-4.158.192-4.932-.192-.677.768-1.257 6.047 3.578 6.047h.097c-1.007 5.17-1.83 10.484-2.209 14.776-2.118 4.626-4.9 9.601-7.074 9.601-4.545 0 2.32-21.786 3.965-24.761 0-1.728-6.383-7.199-10.638-7.199-1.934 0-8.027 8.83-11.799 18.044 1.258-5.47 2.999-10.845 3.869-12.86-2.708-2.496-6.577-2.976-8.414-2.976-1.47 0-3.99 12.15-4.594 20.601-3.1 5.436-7.456 10.59-12.136 10.59-4.255 0-6.383-4.222-6.383-8.253v-1.248c8.124 4.127 15.377-7.198 15.377-16.124 0-4.222-1.644-7.87-5.706-8.925-.968 0-2.515.768-3.385 2.015-.967-.384-1.934-.576-2.708-.576-6.48 0-12.765 12.765-12.765 23.322 0 .506.02 1.01.057 1.512-1.712 3.468-3.657 6.454-5.278 6.454-.87 0-1.354-.96-1.354-3.263 0-6.142 3.384-19.867 4.545-21.978-1.934-1.344-6.383-2.591-7.737-2.591-2.975 0-4.75 11.983-5.233 19.698-2.386 4.78-5.622 9.67-8.885 9.67-2.998 0-3.965-4.223-3.868-10.173 7.833-6.91 15.183-28.217 15.28-35.895 0-5.183-1.064-8.35-3.289-8.35-.58 0-1.353.576-1.837 1.248-1.45-.96-3.094-1.44-4.255-1.44-6.796 0-13.66 25.454-13.963 42.173-3.653 6.612-10.008 13.78-18.144 13.78-7.64 0-9.767-7.773-9.767-14.78 0-15.452 10.25-34.263 18.761-34.455.29 1.824.58 3.935.58 5.759 0 4.702-1.74 10.077-3.578 11.133.29.96 1.257 2.111 2.611 2.111 3.579 0 9.284-8.253 9.284-15.644 0-6.334-5.415-6.91-8.123-6.91-2.321-1.056-4.74-1.631-6.576-1.631C10.83 16.536 0 37.746 0 55.598 0 66.635 7.253 77 19.245 77c7.415 0 13.948-6.185 18.123-12.761.047.327.097.647.154.956 1.16 6.238 4.642 9.886 9.574 9.886 4.714 0 8.365-3.425 11.057-7.635 1.422 4.424 5.842 6.099 8.284 6.099 2.974 0 5.588-2.82 7.697-6.402 1.9 4.712 5.844 8.225 11.74 8.225 6.629 0 11.502-4.391 14.883-9.315 1.02 3.434 4.278 5.86 8.23 5.86.87-12.38 7.254-23.033 10.251-27.352 1.548-2.112 2.612-1.92 2.032.095-1.354 4.991-4.062 14.396-3.385 20.731.58 4.799 4.545 8.542 9.864 8.542 2.873 0 5.509-3.035 7.66-6.835 1.098 4.131 4.475 7.603 10.134 7.603 2.963 0 5.674-2.251 7.982-5.331 1.843 3.49 5.489 6.578 10.875 6.578 5.416-.191 8.897-2.207 10.928-4.894 5.802-2.496 10.832-9.982 12.67-18.716.096-.96-2.226-2.11-2.516-1.727"/>
    </g>
</svg>
