<?xml version="1.0" encoding="utf-8"?>
<!-- Generator: Adobe Illustrator 22.0.1, SVG Export Plug-In . SVG Version: 6.00 Build 0)  -->
<svg version="1.1" id="Capa_1" xmlns="http://www.w3.org/2000/svg" xmlns:xlink="http://www.w3.org/1999/xlink" x="0px" y="0px"
	 viewBox="0 0 272.3 88.8" style="enable-background:new 0 0 272.3 88.8;" xml:space="preserve">
<style type="text/css">
	.st0{fill:#FFFFFF;}
</style>
<g>
	<g>
		<g>
			<path class="st0" d="M189.4,2.7c0.8,0.5,1.5,1.2,2,2c0.5,0.9,0.7,1.9,0.7,2.9c0,1.1-0.2,2.1-0.7,2.9c-0.5,0.9-1.1,1.5-2,2
				c-0.8,0.5-1.8,0.7-2.8,0.7s-2-0.2-2.8-0.7s-1.5-1.2-2-2c-0.5-0.9-0.7-1.9-0.7-2.9c0-1.1,0.2-2.1,0.7-2.9s1.1-1.5,2-2
				c0.8-0.5,1.8-0.7,2.8-0.7C187.7,1.9,188.6,2.2,189.4,2.7z M184.6,3.8c-0.6,0.4-1.1,0.9-1.4,1.5c-0.3,0.7-0.5,1.4-0.5,2.3
				s0.2,1.6,0.5,2.3s0.8,1.2,1.4,1.5c0.6,0.4,1.3,0.5,2.1,0.5s1.4-0.2,2-0.5c0.6-0.4,1.1-0.9,1.4-1.5c0.3-0.7,0.5-1.4,0.5-2.3
				s-0.2-1.7-0.5-2.3c-0.3-0.7-0.8-1.2-1.4-1.5c-0.6-0.4-1.3-0.5-2-0.5C185.9,3.3,185.2,3.5,184.6,3.8z"/>
			<path class="st0" d="M202.1,13.2l-2.9-4.6h-1.6v4.6h-1.4V2.1h3.7c1.3,0,2.2,0.3,2.8,0.9s0.9,1.4,0.9,2.4c0,0.9-0.3,1.6-0.8,2.2
				s-1.2,0.9-2.2,1l3,4.6C203.6,13.2,202.1,13.2,202.1,13.2z M197.7,7.6h2.1c1.6,0,2.4-0.7,2.4-2.1s-0.8-2.1-2.4-2.1h-2.1V7.6z"/>
			<path class="st0" d="M216.3,10.6c-0.5,0.8-1.1,1.5-2,1.9c-0.9,0.5-1.9,0.7-3.2,0.7h-3.5V2.1h3.5c1.2,0,2.3,0.2,3.2,0.7
				c0.9,0.4,1.5,1.1,2,1.9s0.7,1.8,0.7,3C217,8.8,216.8,9.7,216.3,10.6z M214.4,10.8c0.8-0.7,1.2-1.8,1.2-3.2s-0.4-2.4-1.1-3.2
				c-0.8-0.8-1.9-1.1-3.3-1.1h-2v8.6h2C212.5,11.9,213.6,11.5,214.4,10.8z"/>
			<path class="st0" d="M222.6,3.2V7h4.2v1.1h-4.2V12h4.7v1.2h-6.1V2.1h6.1v1.2L222.6,3.2L222.6,3.2z"/>
			<path class="st0" d="M237.3,13.2l-2.9-4.6h-1.6v4.6h-1.4V2.1h3.7c1.3,0,2.2,0.3,2.8,0.9s0.9,1.4,0.9,2.4c0,0.9-0.3,1.6-0.8,2.2
				s-1.2,0.9-2.2,1l3,4.6C238.8,13.2,237.3,13.2,237.3,13.2z M232.8,7.6h2.1c1.6,0,2.4-0.7,2.4-2.1s-0.8-2.1-2.4-2.1h-2.1V7.6z"/>
			<path class="st0" d="M256,8.4c0.4,0.5,0.6,1.1,0.6,1.8c0,0.9-0.3,1.6-0.9,2.2c-0.6,0.5-1.5,0.8-2.7,0.8h-4.1V2.1h4.1
				c1.1,0,2,0.2,2.5,0.7c0.6,0.5,0.9,1.2,0.9,2c0,0.7-0.2,1.3-0.6,1.7c-0.4,0.4-0.9,0.7-1.5,0.9C255,7.6,255.5,7.9,256,8.4z
				 M250.3,7h2.4c0.7,0,1.2-0.2,1.6-0.5c0.4-0.3,0.6-0.8,0.6-1.4s-0.2-1-0.6-1.3c-0.4-0.3-0.9-0.5-1.7-0.5h-2.3V7z M254.5,11.5
				c0.4-0.3,0.6-0.8,0.6-1.5c0-0.6-0.2-1.1-0.6-1.5c-0.4-0.4-1-0.5-1.8-0.5h-2.4v4h2.4C253.5,12,254.1,11.8,254.5,11.5z"/>
			<path class="st0" d="M268.5,2.1L264.9,9v4.2h-1.5V9l-3.7-6.9h1.7l2.7,5.4l2.7-5.4H268.5z"/>
		</g>
	</g>
	<g>
		<g>
			<path class="st0" d="M5.7,59.5c-0.6-6.4,4.7-45,7.7-45c2.4,0,7.1,0.9,8.1,2.5c-1.5,2-5,16.2-6.9,28.8c7.2-23.7,14.7-37,16.7-37
				c3.6,0,8.8,2.3,9.9,4.9c-1.1,2.8-7,22.6-8.5,35.1c6-17.5,11.7-29.9,15.7-29.9c3,0,8.3,3.9,8.6,6.3c-2.4,4.7-7.6,26.9-6.8,37.2
				c2.9-1,5.4-4.4,5.4-4.4c1.7-0.1,0.3,9-5.7,9c-1.5,0-3.1-1.2-4.4-2.8c-2-0.6-3.1-1.7-3.3-3.3c-0.6-15.6,4.5-31.9,5.8-36.6
				C44.6,28.1,37.1,44.2,33.5,59c0.3,1.8-8.9-1.1-8.9-4.9c0-8.3,4.8-28,7.1-38.9c-2.5,3.2-12.9,23.1-17.6,50
				C9.9,65.6,5.9,61.7,5.7,59.5z"/>
			<path class="st0" d="M94.5,42.3h0.3c0.7,0,2.2,0.6,2.2,1.2c0.1,0.6-5,19.5-12.7,19.5c-5,0-8.1-3.6-8.5-8.2
				c-0.1-0.2-0.1-0.5-0.1-0.6c-1.8,6-4.3,10.7-8.6,10.7c-3.1,0-8-2.9-8.8-9.8c-1-9.3,3.8-27.5,13.4-27.5c3.9,0,14.1,5.2,11.8,9.4
				l-0.3,0.4c1.7,0.8,3.4,2.2,4,3.9c-2.5,7.1-4.2,16.4-1.8,16.4C89.3,57.8,94.5,42.3,94.5,42.3z M77.9,38c-0.5-3.4-1.5-5-2.9-5
				c-6.1,0-10.7,26.4-6.9,26.4C70.9,59.3,75.9,44.4,77.9,38z"/>
			<path class="st0" d="M126.9,42.3c0.7-0.2,2.6,0.6,2.5,1.2c-0.1,1.7-5.6,20.6-12.6,20.6c-5,0-8.8-3.6-9.4-8.2
				c-0.6-6.1,1.9-15,3.2-19.8c0.5-1.9-0.5-2.1-1.9-0.1c-2.8,4.1-8.9,14.3-9.7,26.1c-4.2,0-7.6-2.9-8.1-6.9
				c-0.6-6.7,2.7-24.8,4.4-24.8s5.4,0.5,8,2.8c-0.8,1.9-2.5,7.1-3.7,12.3c3.6-8.8,9.4-17.2,11.2-17.2c4,0,10.1,5.2,10.1,6.9
				c-1.6,2.8-8.1,23.7-3.8,23.7C121,58.9,126.9,42.3,126.9,42.3z"/>
			<path class="st0" d="M159.1,42.3h0.3c0.7,0,2.2,0.6,2.2,1.2c0.1,0.6-5,19.5-12.7,19.5c-5,0-8.1-3.6-8.5-8.2
				c-0.1-0.2-0.1-0.5-0.1-0.6c-1.8,6-4.3,10.7-8.6,10.7c-3.1,0-8-2.9-8.8-9.8c-1-9.3,3.8-27.5,13.4-27.5c3.9,0,14.1,5.2,11.8,9.4
				l-0.3,0.4c1.7,0.8,3.4,2.2,4,3.9c-2.5,7.1-4.2,16.4-1.8,16.4C153.9,57.8,159.1,42.3,159.1,42.3z M142.5,38c-0.5-3.4-1.5-5-2.9-5
				c-6.1,0-10.7,26.4-6.9,26.4C135.6,59.3,140.5,44.4,142.5,38z"/>
			<path class="st0" d="M169.6,67.8c1.1-3.6,2-7.6,2.8-11.5c-1.7,5-4.1,8.6-7.9,8.6c-3.1,0-8-2.9-8.8-9.8c-1-9.3,3.8-27.5,13.4-27.5
				c3.9,0,14.1,5.2,11.8,9.4c-0.2,0.3-0.4,0.5-0.6,0.5c1.6,1,3,2.3,3.3,3.2c0.1,1.6-1.2,11.8-4.2,22.3c5-5.1,10.2-15.1,12.1-21.4
				c1.3-0.1,2.5,1,2.4,1.5c-1.7,9.3-9.8,23.2-16.5,26.2c-3.7,9.9-9,18.5-16.4,18.5c-6.2,0-13.1-6-13.5-11.6
				C146.2,65.6,159.4,68.8,169.6,67.8z M168.4,71.8c-8.8,0.7-14-1-13.8,4.4c0.1,3,2.5,6.7,5.4,6.7C163.3,82.9,166.1,78.2,168.4,71.8
				z M175.2,38.1c-0.6-3.5-1.4-5.1-2.8-5.1c-6.1,0-10.7,26.4-6.9,26.4C168.3,59.3,173.2,44.4,175.2,38.1z"/>
			<path class="st0" d="M187.2,50.9c0-10.1,6-22.3,12.1-22.3c0.7,0,1.6,0.2,2.6,0.5c0.8-1.2,2.3-1.9,3.2-1.9c3.9,1,5.4,4.5,5.4,8.5
				c0,8.5-6.9,19.3-14.6,15.4v1.2c0,3.9,2,7.9,6.1,7.9c6.9,0,13-11.8,15.1-18.2c1.4,0,2.3,1,2.5,1.7c0,0-5.7,21.7-20,21.7
				C191.4,65.5,187.2,58.3,187.2,50.9z M203.3,34c-2.8,1.6-6.1,8.1-7.2,14.5C203,49.8,205.9,36.7,203.3,34z"/>
			<path class="st0" d="M223.2,55.8c-0.3-3.5,1.5-14.8,4-19.6c-2.2,0.4-4,0.6-5.6,0.5l-2.9,9.5c-0.6,0.5-2.3-0.2-2.4-2.1
				c0.5-1.3,1.6-5,2.5-7.9c-2.8-0.9-4.2-2.8-4.2-5.4c0-3.1,1.9-8.3,4.8-8.3c2.2,0,4.8,1.4,6.1,3.3c-0.6,0.5-2.3,4.7-3.2,7.2
				c2.6,0,6.2-1.6,7-1.8c1.7,0,7.5,3.7,7.8,5.1c-1.1,2-5.7,13.2-5.7,19.1c0,2.2,1.1,3.1,1.9,3.1c3.9,0,9.9-16.3,9.9-16.3h0.3
				c0.7,0,2.2,0.7,2.2,1.3c0.1,0.6-5.9,20.3-13.5,20.3C228.5,63.7,223.7,61.6,223.2,55.8z"/>
			<path class="st0" d="M252,26.6h0.4c3.2,0,8.2,3.1,7.4,4.9c-2-0.1-4.9,2.4-4.9,5.1c0,3,5.4,9.6,6.1,15.8c0.1,0.9,0.1,1.8,0,2.8
				c3.1-3.1,5.8-8,7.4-13.3c0.3-0.4,2.5,0.7,2.4,1.6c-1.7,8.3-6.5,15.5-12,17.9c-1.9,2.6-5.2,4.5-10.4,4.7
				c-11.7,0-14.8-15.6-8.3-15.6c2.8,0,8.2,3,12.3,4.7c0.1-0.7,0.2-1.6,0.1-2.6c-0.5-5-3.9-9.7-4.3-16.3l-3.4,10
				c-0.6,0.5-2.5-0.1-2.5-2c0.5-1.2,2.1-5.6,3.5-9.9C247.4,29.5,248.6,26.8,252,26.6z M251.4,58.1c-5.1-1.9-7.7-2.8-8.3-2.3
				c-0.9,0.6-0.6,5.4,2.8,5.4C247,61.2,249.9,60.7,251.4,58.1z"/>
		</g>
	</g>
</g>
</svg>
